<?xml version="1.0" standalone="no"?>
<!DOCTYPE svg PUBLIC "-//W3C//DTD SVG 20010904//EN"
 "http://www.w3.org/TR/2001/REC-SVG-20010904/DTD/svg10.dtd">
<svg version="1.0" xmlns="http://www.w3.org/2000/svg"
 width="200.000000pt" height="200.000000pt" viewBox="0 0 200.000000 200.000000"
 preserveAspectRatio="xMidYMid meet">
<metadata>
Created by potrace 1.11, written by Peter Selinger 2001-2013
</metadata>
<g transform="translate(0.000000,200.000000) scale(0.100000,-0.100000)"
fill="#000000" stroke="none">
<path d="M364 1965 c-23 -19 -49 -46 -58 -59 -15 -24 -15 -26 6 -37 18 -10 20
-9 14 6 -4 12 -2 16 8 12 10 -4 13 -1 10 7 -5 12 49 66 92 93 18 11 17 12 -6
12 -14 0 -43 -14 -66 -34z"/>
<path d="M551 1978 c3 -39 -1 -69 -8 -65 -5 3 -9 -5 -9 -16 -2 -35 -74 -158
-87 -150 -14 8 7 -21 39 -55 l22 -23 11 64 c6 36 25 92 42 125 18 33 32 78 33
99 1 32 -2 38 -22 41 -19 3 -23 -1 -21 -20z"/>
<path d="M1728 1964 c-37 -19 -41 -40 -22 -120 9 -38 17 -105 18 -149 l1 -80
-48 -68 c-48 -69 -77 -127 -77 -154 0 -14 93 -124 110 -131 8 -3 24 69 41 183
17 112 12 265 -11 362 -11 46 -20 95 -20 109 0 22 4 24 48 24 68 0 144 -40
193 -102 38 -49 39 -49 39 -21 0 38 -58 94 -130 126 -74 33 -110 38 -142 21z"/>
<path d="M258 1827 c-15 -30 -14 -35 3 -67 25 -47 24 -50 -15 -50 -43 0 -47
-10 -53 -126 -4 -66 -1 -105 11 -145 12 -44 13 -62 4 -86 -10 -26 -14 -29 -34
-19 -13 6 -28 21 -33 34 -11 23 -41 31 -41 10 0 -7 -3 -22 -6 -33 -3 -14 10
-40 42 -83 58 -78 52 -93 -7 -18 -24 31 -47 56 -51 56 -14 0 -8 -56 12 -115
11 -32 20 -84 20 -116 0 -32 5 -70 11 -86 5 -15 11 -88 12 -163 3 -168 13
-194 134 -332 148 -168 183 -212 192 -243 7 -28 1 -128 -14 -208 l-7 -36 45 1
c31 0 48 5 52 16 10 25 35 263 35 329 0 35 3 63 6 63 5 0 44 -19 52 -25 1 -1
-5 -18 -13 -38 -17 -40 -20 -173 -5 -197 5 -8 11 -12 13 -10 23 29 47 71 47
82 0 7 -11 0 -25 -17 l-24 -30 0 55 c-1 59 12 128 26 140 4 4 64 -1 133 -11
69 -11 167 -19 219 -18 93 2 93 2 111 -27 10 -16 21 -55 25 -87 l7 -58 -36 38
c-30 32 -37 35 -46 23 -5 -8 -10 -26 -10 -40 -1 -33 -28 -94 -29 -65 -1 11 -8
31 -17 44 -14 19 -14 25 -3 32 11 7 11 9 1 9 -7 0 -20 -17 -29 -37 -17 -41
-62 -99 -74 -96 -4 1 -5 -7 -2 -17 3 -11 3 -20 0 -20 -9 0 -58 93 -60 112 -1
10 -5 18 -10 18 -5 0 -7 9 -4 20 3 11 1 18 -3 15 -5 -3 -10 1 -13 7 -8 23 -17
2 -25 -58 l-7 -59 -23 38 c-12 21 -22 42 -22 48 0 5 -4 9 -8 9 -4 0 -13 14
-20 32 -6 17 -14 30 -16 27 -8 -7 19 -111 34 -136 17 -27 93 -71 84 -49 -3 8
-2 22 4 31 7 14 11 12 21 -13 15 -35 64 -83 77 -73 5 3 15 18 23 34 11 20 17
24 23 15 6 -9 7 -6 4 8 -4 14 1 27 15 40 l21 19 -5 -38 c-3 -20 -1 -39 3 -42
26 -16 79 51 90 114 l6 36 28 -42 c16 -24 33 -43 37 -43 14 0 10 130 -5 188
-14 52 -14 53 7 50 25 -4 54 -86 64 -183 7 -70 19 -99 38 -91 10 3 12 0 8 -11
-5 -12 -3 -14 8 -8 8 4 11 4 6 0 -4 -5 3 -19 15 -32 l22 -24 14 23 13 23 -4
-23 c-4 -18 -1 -22 18 -22 24 0 24 1 0 94 l-8 28 49 -27 49 -28 -44 46 c-24
25 -49 45 -55 44 -5 -1 -10 5 -11 13 0 8 -9 26 -20 39 -11 13 -38 44 -59 70
-21 25 -43 48 -47 49 -17 7 -9 28 10 28 11 0 17 -5 14 -13 -3 -7 2 -13 10 -13
9 0 19 -5 23 -12 5 -7 2 -8 -7 -3 -8 4 10 -17 40 -48 30 -31 59 -53 64 -50 6
3 7 1 3 -5 -4 -7 4 -24 18 -39 18 -19 26 -23 26 -12 0 8 -6 21 -12 29 -11 12
-10 12 5 0 10 -7 17 -20 15 -29 -1 -9 4 -26 11 -39 12 -22 13 -22 29 -4 9 10
14 13 10 7 -12 -18 3 -26 21 -12 14 10 14 10 3 -5 -8 -9 -20 -14 -29 -11 -11
4 -14 2 -11 -8 7 -23 75 -51 139 -56 53 -5 62 -3 85 18 36 34 72 108 95 197
14 57 26 82 44 96 14 10 34 35 45 55 10 20 46 69 79 109 59 73 59 73 59 137 0
36 -1 65 -3 65 -1 0 -19 -7 -38 -15 -45 -19 -48 -19 -40 1 5 14 -7 68 -28 122
l-9 23 -42 -35 -41 -36 -18 29 c-9 16 -22 30 -27 32 -5 2 -12 22 -15 44 -6 39
-6 41 37 63 24 13 59 37 77 53 l34 29 -31 27 c-18 16 -37 39 -44 52 -10 20
-17 22 -52 17 -22 -4 -57 -16 -79 -26 -45 -23 -46 -22 -20 28 10 20 24 54 30
74 12 36 11 38 -35 95 -26 32 -55 67 -65 78 -10 11 -39 48 -63 82 -78 107
-181 165 -324 179 -55 6 -65 10 -77 34 -36 70 -126 114 -133 65 -2 -18 -10
-20 -77 -20 -50 0 -78 -4 -87 -14 -9 -10 -10 -15 -1 -18 17 -6 -26 -47 -67
-63 -51 -19 -64 -31 -48 -41 7 -5 26 0 46 11 40 24 53 26 26 4 -18 -14 -18
-15 6 -8 25 6 25 6 5 -11 -11 -9 -15 -14 -10 -11 6 2 17 1 24 -3 9 -6 7 -10
-8 -14 -14 -3 -22 1 -26 14 -8 25 -26 25 -22 -1 4 -22 36 -62 46 -55 4 2 8 -5
8 -16 1 -15 -2 -17 -16 -9 -10 5 -22 6 -26 2 -5 -4 -6 -2 -2 3 3 6 -12 30 -33
55 -38 44 -39 45 -65 29 -35 -21 -35 -31 -3 -47 14 -6 29 -24 32 -38 7 -25 8
-26 26 -9 12 11 20 13 20 7 0 -7 -4 -12 -10 -12 -17 0 -11 -26 12 -56 21 -29
21 -29 -13 3 l-34 31 -37 -19 c-20 -10 -40 -23 -43 -29 -4 -7 -12 -7 -25 0
-51 27 -135 -81 -113 -147 7 -21 51 -58 69 -58 1 0 5 -19 9 -41 6 -41 6 -42
-28 -53 -40 -14 -74 -4 -108 31 -12 13 -19 17 -15 11 4 -7 2 -13 -4 -13 -41 0
70 224 159 321 65 72 78 109 17 50 -32 -31 -35 -32 -44 -15 -5 11 -13 48 -17
84 -8 75 -26 107 -36 69 -6 -22 -7 -22 -8 6 -1 34 -16 63 -27 53 -11 -11 -44
-179 -44 -223 0 -22 4 -57 9 -77 7 -29 6 -38 -4 -38 -8 0 -21 -7 -29 -16 -15
-14 -16 -14 -16 5 0 12 -8 29 -19 40 -10 10 -23 31 -28 47 -13 40 -38 42 -51
5 -27 -77 -48 7 -39 152 3 49 9 92 12 95 3 3 21 6 40 6 42 0 45 17 14 70 -19
32 -19 37 -5 64 14 27 13 42 -4 42 -3 0 -13 -15 -22 -33z m706 -176 c4 -5 -3
-7 -14 -4 -23 6 -26 13 -6 13 8 0 17 -4 20 -9z m1 -31 c4 -6 -6 -10 -22 -9
-25 0 -26 1 -8 9 11 5 21 9 22 9 1 1 5 -3 8 -9z m75 -5 c11 -13 10 -14 -4 -9
-9 3 -16 10 -16 15 0 13 6 11 20 -6z m-578 -40 c-6 -34 -12 -32 -12 6 0 16 4
28 9 25 4 -3 6 -17 3 -31z m363 25 c3 -5 1 -10 -4 -10 -6 0 -11 5 -11 10 0 6
2 10 4 10 3 0 8 -4 11 -10z m352 -2 c-17 -6 -32 -7 -38 -1 -5 5 6 10 29 10 37
2 37 2 9 -9z m-27 -23 c0 -1 -6 -7 -13 -13 -10 -8 -13 -6 -13 7 0 11 6 17 13
14 7 -3 13 -6 13 -8z m80 -5 c0 -5 -5 -10 -11 -10 -5 0 -7 5 -4 10 3 6 8 10
11 10 2 0 4 -4 4 -10z m-35 -10 c-3 -5 -12 -10 -18 -10 -7 0 -6 4 3 10 19 12
23 12 15 0z m80 0 c3 -5 -1 -10 -9 -10 -9 0 -16 5 -16 10 0 6 4 10 9 10 6 0
13 -4 16 -10z m-35 -19 c0 -5 -9 -7 -20 -4 -11 3 -20 7 -20 9 0 2 9 4 20 4 11
0 20 -4 20 -9z m-529 -18 c13 -16 12 -17 -3 -4 -10 7 -18 15 -18 17 0 8 8 3
21 -13z m439 -2 c0 -5 -7 -12 -16 -15 -14 -5 -15 -4 -4 9 14 17 20 19 20 6z
m-314 -26 c-3 -8 -1 -15 4 -15 6 0 10 -5 10 -11 0 -8 -5 -8 -15 1 -17 15 -20
40 -4 40 6 0 9 -7 5 -15z m234 0 c0 -12 -19 -12 -23 0 -4 9 -1 12 9 8 7 -3 14
-7 14 -8z m311 -28 c50 -33 79 -85 79 -139 0 -15 7 -34 16 -42 14 -15 14 -16
-1 -16 -9 0 -14 -4 -11 -9 6 -9 -16 -21 -38 -21 -6 0 -13 11 -14 25 -5 69 -67
118 -164 131 -57 8 -123 -22 -173 -77 -53 -59 -72 -167 -40 -229 15 -29 15
-30 -25 -56 -33 -22 -43 -24 -55 -14 -8 7 -15 19 -15 27 0 8 -4 12 -9 9 -13
-8 -2 31 22 83 15 33 20 62 18 105 -3 92 -5 114 -13 122 -5 4 -8 12 -8 18 0 6
4 5 9 -2 10 -17 50 -1 106 44 114 90 224 105 316 41z m-511 23 c0 -5 -2 -10
-4 -10 -3 0 -8 5 -11 10 -3 6 -1 10 4 10 6 0 11 -4 11 -10z m240 6 c0 -3 -4
-8 -10 -11 -5 -3 -10 -1 -10 4 0 6 5 11 10 11 6 0 10 -2 10 -4z m-150 -26 c0
-5 -5 -10 -11 -10 -5 0 -7 5 -4 10 3 6 8 10 11 10 2 0 4 -4 4 -10z m120 6 c0
-3 -13 -14 -30 -26 -16 -12 -30 -18 -30 -13 0 4 12 15 28 25 32 19 32 19 32
14z m-170 -16 c0 -5 -4 -10 -10 -10 -5 0 -10 5 -10 10 0 6 5 10 10 10 6 0 10
-4 10 -10z m-3 -35 c0 -8 -4 -12 -9 -9 -4 3 -8 9 -8 15 0 5 4 9 8 9 5 0 9 -7
9 -15z m103 5 c0 -5 -2 -10 -4 -10 -3 0 -8 5 -11 10 -3 6 -1 10 4 10 6 0 11
-4 11 -10z m-70 -10 c0 -5 -2 -10 -4 -10 -3 0 -8 5 -11 10 -3 6 -1 10 4 10 6
0 11 -4 11 -10z m547 -112 c-3 -8 -6 -5 -6 6 -1 11 2 17 5 13 3 -3 4 -12 1
-19z m-1240 -80 c-3 -7 -5 -2 -5 12 0 14 2 19 5 13 2 -7 2 -19 0 -25z m1277
13 c3 -4 -6 -6 -19 -3 -14 2 -25 6 -25 8 0 8 39 4 44 -5z m-24 -36 c30 -15 47
-53 37 -79 -7 -18 -59 -29 -97 -21 -69 15 -108 84 -57 105 34 14 85 12 117 -5z
m-1359 -42 c-12 -20 -14 -14 -5 12 4 9 9 14 11 11 3 -2 0 -13 -6 -23z m12 -53
c-3 -12 -8 -19 -11 -16 -5 6 5 36 12 36 2 0 2 -9 -1 -20z m14 -22 c-3 -8 -6
-5 -6 6 -1 11 2 17 5 13 3 -3 4 -12 1 -19z m220 0 c-3 -8 -6 -5 -6 6 -1 11 2
17 5 13 3 -3 4 -12 1 -19z m53 -4 c0 -2 -7 -4 -15 -4 -8 0 -15 4 -15 10 0 5 7
7 15 4 8 -4 15 -8 15 -10z m924 8 c3 -5 -8 -6 -25 -4 -16 2 -29 6 -29 8 0 8
49 4 54 -4z m-91 -9 c-7 -2 -19 -2 -25 0 -7 3 -2 5 12 5 14 0 19 -2 13 -5z
m527 3 c0 -2 -7 -7 -16 -10 -8 -3 -12 -2 -9 4 6 10 25 14 25 6z m-383 -12 c-3
-3 -12 -4 -19 -1 -8 3 -5 6 6 6 11 1 17 -2 13 -5z m-846 -37 c-10 -9 -11 -8
-5 6 3 10 9 15 12 12 3 -3 0 -11 -7 -18z m313 11 c-5 -8 -1 -9 12 -5 18 7 18
6 2 -7 -10 -7 -18 -19 -18 -27 0 -12 -2 -12 -9 0 -6 9 -17 11 -32 6 -23 -7
-23 -7 -4 8 10 8 25 12 32 10 8 -3 13 -2 12 3 -2 14 0 24 7 24 3 0 2 -5 -2
-12z m561 2 c8 -13 -5 -13 -25 0 -13 8 -13 10 2 10 9 0 20 -4 23 -10z m338
-10 c9 -11 13 -20 7 -20 -5 0 -14 9 -20 20 -6 11 -9 20 -8 20 2 0 11 -9 21
-20z m-1397 -2 c5 -7 3 -8 -6 -3 -10 6 -11 1 -6 -21 5 -24 4 -26 -5 -11 -6 10
-8 25 -5 33 7 17 12 18 22 2z m758 3 c3 -4 -4 -7 -14 -6 -27 2 -33 10 -10 12
11 1 22 -2 24 -6z m136 -1 c0 -5 -7 -10 -15 -10 -8 0 -15 5 -15 10 0 6 7 10
15 10 8 0 15 -4 15 -10z m300 0 c0 -5 -5 -10 -11 -10 -5 0 -7 5 -4 10 3 6 8
10 11 10 2 0 4 -4 4 -10z m86 1 c-4 -5 0 -12 6 -14 8 -4 7 -6 -4 -6 -9 -1 -25
-4 -35 -8 -12 -4 -10 0 7 15 27 23 34 27 26 13z m-1503 -21 c9 -11 13 -20 7
-20 -5 0 -14 9 -20 20 -6 11 -9 20 -8 20 2 0 11 -9 21 -20z m74 14 c-3 -3 -12
-4 -19 -1 -8 3 -5 6 6 6 11 1 17 -2 13 -5z m861 -12 c2 -7 -2 -10 -12 -6 -9 3
-16 11 -16 16 0 13 23 5 28 -10z m229 12 c-3 -3 -12 -4 -19 -1 -8 3 -5 6 6 6
11 1 17 -2 13 -5z m-712 -24 c-3 -5 -12 -10 -18 -10 -7 0 -6 4 3 10 19 12 23
12 15 0z m-87 -7 c-10 -2 -26 -2 -35 0 -10 3 -2 5 17 5 19 0 27 -2 18 -5z
m275 0 c3 -5 -9 -9 -26 -10 -26 -1 -28 0 -12 7 26 11 33 12 38 3z m617 -3 c0
-5 -2 -10 -4 -10 -3 0 -8 5 -11 10 -3 6 -1 10 4 10 6 0 11 -4 11 -10z m-753
-6 c-3 -3 -12 -4 -19 -1 -8 3 -5 6 6 6 11 1 17 -2 13 -5z m283 3 c0 -2 -10
-12 -22 -23 l-23 -19 19 23 c18 21 26 27 26 19z m705 -7 c-3 -5 -11 -10 -16
-10 -6 0 -7 5 -4 10 3 6 11 10 16 10 6 0 7 -4 4 -10z m-1245 -4 c0 -3 -4 -8
-10 -11 -5 -3 -10 -1 -10 4 0 6 5 11 10 11 6 0 10 -2 10 -4z m307 -2 c-3 -3
-12 -4 -19 -1 -8 3 -5 6 6 6 11 1 17 -2 13 -5z m-114 -10 c11 -11 -35 -74 -54
-74 -20 0 -62 57 -53 72 6 9 98 11 107 2z m164 0 c-3 -3 -12 -4 -19 -1 -8 3
-5 6 6 6 11 1 17 -2 13 -5z m-287 -13 c0 -18 -24 -76 -34 -83 -15 -10 -34 9
-41 44 -5 21 -3 33 6 39 18 11 69 12 69 0z m493 -9 c-10 -10 -20 -17 -22 -16
-6 5 20 34 30 34 5 0 1 -8 -8 -18z m87 3 c-14 -7 -27 -11 -30 -9 -6 7 22 24
40 23 9 0 5 -6 -10 -14z m610 11 c0 -3 -4 -8 -10 -11 -5 -3 -10 -1 -10 4 0 6
5 11 10 11 6 0 10 -2 10 -4z m-920 -32 c22 -9 40 -22 40 -30 0 -12 -37 -44
-52 -44 -10 0 -34 38 -43 68 -8 26 1 27 55 6z m90 6 c0 -5 -2 -10 -4 -10 -3 0
-8 5 -11 10 -3 6 -1 10 4 10 6 0 11 -4 11 -10z m-673 -32 c-3 -7 -5 -2 -5 12
0 14 2 19 5 13 2 -7 2 -19 0 -25z m683 -26 c21 -17 22 -21 9 -55 -7 -20 -16
-37 -20 -37 -6 0 -29 85 -29 105 0 10 19 4 40 -13z m-488 -54 c2 -21 0 -38 -4
-38 -4 0 -7 24 -7 53 1 54 5 49 11 -15z m-65 10 c-3 -8 -6 -5 -6 6 -1 11 2 17
5 13 3 -3 4 -12 1 -19z m637 -28 c4 -25 3 -31 -4 -20 -5 8 -10 26 -10 39 0 32
6 24 14 -19z m-37 -2 c-3 -7 -5 -2 -5 12 0 14 2 19 5 13 2 -7 2 -19 0 -25z
m-440 -90 c7 -71 -10 -83 -33 -23 -14 37 -15 50 -5 72 17 36 31 18 38 -49z
m-140 30 c-3 -8 -6 -5 -6 6 -1 11 2 17 5 13 3 -3 4 -12 1 -19z m62 -28 c0 -9
-4 -8 -9 5 -5 11 -9 27 -9 35 0 9 4 8 9 -5 5 -11 9 -27 9 -35z m498 5 c0 -8
-4 -12 -9 -9 -4 3 -8 9 -8 15 0 5 4 9 8 9 5 0 9 -7 9 -15z m782 -35 c0 -9 -4
-8 -9 5 -5 11 -9 27 -9 35 0 9 4 8 9 -5 5 -11 9 -27 9 -35z m-1144 -68 c-1
-21 -4 -41 -4 -47 -2 -14 -41 35 -41 51 0 8 7 31 16 52 l16 37 9 -28 c4 -16 6
-45 4 -65z m-163 30 c3 -10 0 -19 -6 -19 -6 0 -11 10 -11 23 0 25 10 23 17 -4z
m52 12 c3 -8 2 -12 -4 -9 -6 3 -10 10 -10 16 0 14 7 11 14 -7z m463 -16 c-3
-7 -5 -2 -5 12 0 14 2 19 5 13 2 -7 2 -19 0 -25z m-37 12 c0 -5 -2 -10 -4 -10
-3 0 -8 5 -11 10 -3 6 -1 10 4 10 6 0 11 -4 11 -10z m-405 -40 c10 -11 16 -20
13 -20 -3 0 -13 9 -23 20 -10 11 -16 20 -13 20 3 0 13 -9 23 -20z m414 -52
c17 -34 28 -65 24 -69 -5 -4 -27 -10 -50 -14 l-43 -7 0 54 c0 115 22 127 69
36z m603 40 c-7 -7 -12 -8 -12 -2 0 14 12 26 19 19 2 -3 -1 -11 -7 -17z m58 6
c0 -8 -5 -12 -10 -9 -6 4 -8 11 -5 16 9 14 15 11 15 -7z m197 -10 c-3 -3 -12
-4 -19 -1 -8 3 -5 6 6 6 11 1 17 -2 13 -5z m-1133 -30 c8 -22 8 -44 -1 -44
-21 1 -35 19 -28 39 8 25 20 27 29 5z m903 -16 c-3 -8 -6 -5 -6 6 -1 11 2 17
5 13 3 -3 4 -12 1 -19z m-1187 -2 c0 -2 -7 -7 -16 -10 -8 -3 -12 -2 -9 4 6 10
25 14 25 6z m36 -32 c0 -18 -4 -30 -9 -27 -5 3 -6 12 -3 20 4 9 2 21 -4 28 -7
8 -6 12 3 12 8 0 13 -13 13 -33z m360 9 c21 -28 17 -53 -8 -53 -13 0 -30 4
-38 10 -12 7 -12 12 0 34 16 30 28 33 46 9z m891 -5 c-3 -8 -6 -5 -6 6 -1 11
2 17 5 13 3 -3 4 -12 1 -19z m-1284 -3 c-3 -9 -8 -14 -10 -11 -3 3 -2 9 2 15
9 16 15 13 8 -4z m146 -19 c-3 -3 -11 5 -18 17 -13 21 -12 21 5 5 10 -10 16
-20 13 -22z m61 24 c0 -5 -2 -10 -4 -10 -3 0 -8 5 -11 10 -3 6 -1 10 4 10 6 0
11 -4 11 -10z m1230 -20 c0 -4 -6 -10 -14 -13 -10 -4 -13 2 -12 18 1 17 4 21
14 13 6 -6 12 -14 12 -18z m166 -18 c-18 -16 -18 -16 -6 6 6 13 14 21 18 18 3
-4 -2 -14 -12 -24z m-1472 2 c3 -8 2 -12 -4 -9 -6 3 -10 10 -10 16 0 14 7 11
14 -7z m-54 -19 c0 -2 -9 -3 -19 -2 -11 0 -18 5 -15 9 4 6 34 0 34 -7z m657 9
c-3 -3 -12 -4 -19 -1 -8 3 -5 6 6 6 11 1 17 -2 13 -5z m537 -26 c4 -19 0 -51
-10 -80 -15 -46 -27 -58 -38 -39 -3 5 -31 20 -62 35 l-56 27 58 35 c33 19 63
40 69 45 18 17 33 9 39 -23z m283 10 c-3 -8 -6 -5 -6 6 -1 11 2 17 5 13 3 -3
4 -12 1 -19z m-1360 -10 c-3 -8 -6 -5 -6 6 -1 11 2 17 5 13 3 -3 4 -12 1 -19z
m133 6 c0 -2 -9 -4 -20 -4 -11 0 -20 4 -20 9 0 5 9 7 20 4 11 -3 20 -7 20 -9z
m1205 -3 c-3 -6 -11 -11 -16 -11 -5 0 -4 6 3 14 14 16 24 13 13 -3z m-975 -1
c0 -5 -4 -10 -10 -10 -5 0 -10 5 -10 10 0 6 5 10 10 10 6 0 10 -4 10 -10z
m407 4 c-3 -3 -12 -4 -19 -1 -8 3 -5 6 6 6 11 1 17 -2 13 -5z m353 -15 c0 -5
-4 -9 -10 -9 -5 0 -10 7 -10 16 0 8 5 12 10 9 6 -3 10 -10 10 -16z m-980 -9
c8 -5 11 -10 5 -10 -5 0 -17 5 -25 10 -8 5 -10 10 -5 10 6 0 17 -5 25 -10z
m126 3 c-19 -3 -25 -7 -17 -12 9 -6 8 -10 -5 -15 -10 -4 -15 -4 -11 0 4 4 -1
12 -9 19 -14 10 -9 12 27 12 29 0 34 -1 15 -4z m904 -3 c0 -5 -4 -10 -10 -10
-5 0 -10 5 -10 10 0 6 5 10 10 10 6 0 10 -4 10 -10z m-1254 -28 c1 -12 -2 -19
-7 -16 -4 2 -5 12 -2 21 5 13 2 15 -11 10 -11 -4 -15 -3 -11 4 11 16 30 4 31
-19z m727 21 c-7 -2 -19 -2 -25 0 -7 3 -2 5 12 5 14 0 19 -2 13 -5z m-598 -13
c-3 -5 -12 -10 -18 -10 -7 0 -6 4 3 10 19 12 23 12 15 0z m732 4 c-3 -3 -12
-4 -19 -1 -8 3 -5 6 6 6 11 1 17 -2 13 -5z m547 -9 c-5 -11 -2 -14 12 -9 16 6
17 5 7 -7 -15 -15 -40 2 -29 20 10 16 16 13 10 -4z m-969 -5 c13 -5 14 -9 5
-9 -8 0 -24 4 -35 9 -13 5 -14 9 -5 9 8 0 24 -4 35 -9z m761 -44 c-2 -6 -5 -2
-5 9 -1 17 -3 18 -12 5 -9 -12 -10 -12 -5 3 3 10 6 24 7 30 0 7 5 1 10 -12 5
-13 8 -29 5 -35z m-1046 28 c0 -8 -5 -12 -10 -9 -6 4 -8 11 -5 16 9 14 15 11
15 -7z m403 9 c-7 -2 -19 -2 -25 0 -7 3 -2 5 12 5 14 0 19 -2 13 -5z m217 2
c0 -7 -30 -13 -34 -7 -3 4 4 9 15 9 10 1 19 0 19 -2z m615 -24 c-6 -5 -25 10
-25 20 0 5 6 4 14 -3 8 -7 12 -15 11 -17z m-1357 -16 c-3 -3 -9 2 -12 12 -6
14 -5 15 5 6 7 -7 10 -15 7 -18z m859 -1 c-3 -3 -12 -4 -19 -1 -8 3 -5 6 6 6
11 1 17 -2 13 -5z m80 -9 c0 -8 -4 -12 -9 -9 -5 3 -6 10 -3 15 9 13 12 11 12
-6z m423 11 c0 -2 -8 -10 -17 -17 -16 -13 -17 -12 -4 4 13 16 21 21 21 13z
m-355 -24 c-3 -3 -11 0 -18 7 -9 10 -8 11 6 5 10 -3 15 -9 12 -12z m145 -3 c0
-6 -4 -7 -10 -4 -5 3 -10 11 -10 16 0 6 5 7 10 4 6 -3 10 -11 10 -16z m-1048
-21 c-8 -8 -9 -4 -5 13 4 13 8 18 11 10 2 -7 -1 -18 -6 -23z m968 -10 c0 -6
-6 -5 -15 2 -8 7 -15 14 -15 16 0 2 7 1 15 -2 8 -4 15 -11 15 -16z m52 -10
c-8 -8 -9 -4 -5 13 4 13 8 18 11 10 2 -7 -1 -18 -6 -23z m-95 -25 c-3 -10 -5
-4 -5 12 0 17 2 24 5 18 2 -7 2 -21 0 -30z m-967 17 c0 -5 -5 -10 -11 -10 -5
0 -7 5 -4 10 3 6 8 10 11 10 2 0 4 -4 4 -10z m865 0 c3 -5 1 -10 -4 -10 -6 0
-11 5 -11 10 0 6 2 10 4 10 3 0 8 -4 11 -10z m-818 -22 c-3 -8 -6 -5 -6 6 -1
11 2 17 5 13 3 -3 4 -12 1 -19z m812 -16 c-12 -5 -39 17 -39 30 0 5 11 1 24
-9 13 -10 20 -20 15 -21z m-832 -9 c-3 -10 -5 -4 -5 12 0 17 2 24 5 18 2 -7 2
-21 0 -30z m1033 2 c0 -5 -4 -4 -9 4 -6 9 -11 10 -15 2 -9 -13 -26 -5 -26 12
0 7 4 6 10 -3 8 -12 10 -12 16 4 5 14 9 15 15 4 5 -7 9 -17 9 -23z m163 1 c7
4 9 4 5 -1 -4 -4 -3 -16 2 -26 7 -12 6 -26 -2 -44 -10 -22 -13 -24 -21 -10 -5
9 -6 19 -3 22 3 4 6 0 6 -8 0 -11 2 -11 10 1 13 20 13 33 0 25 -6 -3 -7 1 -4
9 3 9 1 16 -5 16 -6 0 -10 12 -10 28 2 23 2 24 6 4 3 -14 9 -20 16 -16z
m-1216 -8 c-3 -7 -5 -2 -5 12 0 14 2 19 5 13 2 -7 2 -19 0 -25z m771 -9 c-3
-8 -7 -3 -11 10 -4 17 -3 21 5 13 5 -5 8 -16 6 -23z m-18 0 c0 -6 -4 -7 -10
-4 -5 3 -10 11 -10 16 0 6 5 7 10 4 6 -3 10 -11 10 -16z m-728 -58 c3 8 5 -4
6 -25 l2 -39 -25 33 c-30 40 -35 79 -6 41 13 -18 20 -20 23 -10z m738 9 c0 -5
-4 -10 -10 -10 -5 0 -10 5 -10 10 0 6 5 10 10 10 6 0 10 -4 10 -10z m427 -62
c-3 -7 -5 -2 -5 12 0 14 2 19 5 13 2 -7 2 -19 0 -25z m-1187 -13 c-6 -8 -9
-19 -5 -25 3 -5 1 -10 -4 -10 -12 0 -15 33 -4 43 13 14 25 7 13 -8z m814 -1
c3 -8 2 -12 -4 -9 -6 3 -10 10 -10 16 0 14 7 11 14 -7z m-49 -4 c3 -5 1 -10
-4 -10 -6 0 -11 5 -11 10 0 6 2 10 4 10 3 0 8 -4 11 -10z m-748 -22 c-3 -8 -6
-5 -6 6 -1 11 2 17 5 13 3 -3 4 -12 1 -19z m1138 -8 c-3 -5 -12 -10 -18 -10
-7 0 -6 4 3 10 19 12 23 12 15 0z m-38 -16 c-3 -3 -12 -4 -19 -1 -8 3 -5 6 6
6 11 1 17 -2 13 -5z m-1110 -26 c-3 -8 -6 -5 -6 6 -1 11 2 17 5 13 3 -3 4 -12
1 -19z"/>
<path d="M1965 1220 c-16 -17 -35 -28 -43 -25 -7 2 -11 1 -7 -4 3 -5 -17 -20
-44 -33 -58 -27 -69 -58 -18 -49 5 1 6 -3 2 -8 -5 -8 9 -39 32 -70 5 -8 54 42
85 87 24 34 29 51 26 88 l-3 46 -30 -32z m-5 -65 c-7 -8 -17 -15 -23 -15 -6 0
-2 7 9 15 25 19 30 19 14 0z"/>
<path d="M938 293 c7 -3 16 -2 19 1 4 3 -2 6 -13 5 -11 0 -14 -3 -6 -6z"/>
<path d="M850 136 c0 -2 7 -7 16 -10 8 -3 12 -2 9 4 -6 10 -25 14 -25 6z"/>
<path d="M1230 26 c0 -18 5 -24 19 -23 15 1 17 5 10 19 -15 29 -29 31 -29 4z"/>
</g>
</svg>
